<?xml version="1.0" standalone="no"?>
<!DOCTYPE svg PUBLIC "-//W3C//DTD SVG 20010904//EN"
 "http://www.w3.org/TR/2001/REC-SVG-20010904/DTD/svg10.dtd">
<svg version="1.0" xmlns="http://www.w3.org/2000/svg"
 width="296.000000pt" height="279.000000pt" viewBox="0 0 296.000000 279.000000"
 preserveAspectRatio="xMidYMid meet">

<g transform="translate(0.000000,279.000000) scale(0.100000,-0.100000)"
fill="#000000" stroke="none">
<path d="M636 2764 c-3 -9 -6 -41 -6 -72 0 -31 -5 -74 -10 -94 -10 -36 -14
-38 -83 -58 -40 -11 -90 -27 -112 -36 -41 -15 -95 -56 -95 -72 0 -14 50 -44
64 -39 7 3 23 -1 37 -9 13 -7 52 -13 86 -14 95 0 93 2 93 -109 0 -244 52 -317
92 -129 9 46 17 110 18 144 0 85 10 95 106 105 83 8 202 41 240 66 31 20 40
67 20 98 -26 40 -75 49 -228 42 -137 -7 -138 -6 -142 16 -35 169 -38 177 -56
177 -10 0 -21 -7 -24 -16z"/>
<path d="M1183 2188 c-34 -38 -63 -105 -63 -146 0 -22 -6 -45 -13 -51 -12 -9
-92 -10 -122 -1 -18 6 -63 -12 -81 -31 -14 -15 -15 -24 -6 -43 9 -20 22 -25
94 -36 46 -7 89 -17 96 -23 8 -6 12 -37 12 -87 0 -118 24 -170 77 -170 15 0
27 8 32 24 5 13 17 26 25 29 13 5 16 23 16 90 0 59 4 88 13 96 8 6 43 10 78
10 35 -1 80 5 99 13 l35 15 -32 16 c-18 10 -43 17 -56 17 -13 0 -27 3 -31 8
-4 4 -28 14 -54 22 l-47 15 -7 80 c-8 90 -26 175 -37 175 -4 0 -17 -10 -28
-22z"/>
<path d="M341 2101 c-10 -6 -14 -33 -16 -88 -1 -50 -7 -88 -16 -100 -8 -11
-48 -36 -90 -55 -85 -40 -119 -77 -119 -131 l0 -35 69 -12 c37 -7 83 -10 102
-8 43 7 79 -7 79 -29 0 -10 9 -31 19 -46 10 -16 16 -37 14 -48 -3 -10 -2 -48
2 -83 5 -48 13 -71 31 -91 13 -14 24 -32 24 -39 0 -22 28 -39 55 -32 32 8 53
50 55 111 3 71 2 73 -20 80 -26 8 -26 40 0 58 19 13 20 21 14 79 -9 90 1 105
73 113 64 8 166 47 201 78 45 41 16 110 -54 123 -19 3 -58 4 -87 0 -29 -3 -82
-9 -119 -12 l-67 -7 -29 64 c-16 36 -43 77 -61 92 -36 30 -40 31 -60 18z"/>
<path d="M1088 903 c-108 -3 -141 -12 -103 -27 12 -4 15 -31 15 -155 0 -132
-2 -151 -17 -160 -10 -5 -15 -12 -12 -16 4 -3 68 -7 142 -8 l136 -2 6 35 c3
19 8 43 11 53 8 26 -43 23 -51 -3 -10 -31 -49 -52 -92 -48 l-38 3 -3 68 -3 67
35 0 c24 0 39 -6 50 -21 21 -31 36 -14 36 42 0 53 -19 67 -40 28 -9 -15 -19
-19 -43 -17 -32 3 -32 3 -35 66 l-3 62 46 0 c36 0 51 -5 69 -25 19 -20 26 -22
39 -12 13 9 15 19 9 42 -5 17 -15 30 -23 30 -8 1 -67 -1 -131 -2z"/>
<path d="M2169 905 c-4 -3 -91 -6 -194 -6 -104 0 -193 -3 -198 -6 -5 -3 2 -11
15 -17 22 -11 23 -16 26 -146 3 -127 1 -136 -18 -152 -37 -30 -80 2 -80 59 0
31 -2 33 -35 33 -32 0 -35 -2 -35 -30 0 -17 6 -46 14 -64 11 -27 21 -34 52
-39 86 -15 141 1 166 46 7 12 14 80 17 157 l6 135 29 3 c16 2 32 -2 37 -10 5
-7 9 -75 9 -150 0 -127 -1 -138 -21 -151 -33 -24 -7 -30 133 -31 l128 -1 10
35 c6 19 10 43 10 53 0 28 -37 20 -57 -13 -20 -34 -43 -43 -94 -38 l-34 3 0
65 0 65 32 3 c23 2 35 -3 46 -19 22 -31 37 -15 37 42 0 53 -15 65 -38 28 -10
-15 -21 -19 -45 -17 l-32 3 0 60 0 60 42 3 c35 3 47 -2 69 -23 24 -24 28 -25
41 -12 12 11 13 22 6 44 -9 26 -32 41 -44 28z"/>
<path d="M2375 903 c-60 -2 -114 -8 -119 -13 -7 -7 -4 -10 6 -10 24 0 28 -21
28 -165 0 -124 -2 -135 -21 -148 -34 -24 -5 -32 133 -33 l127 0 11 29 c18 53
13 77 -15 77 -14 0 -25 -6 -25 -13 0 -30 -40 -57 -85 -57 l-45 0 0 70 0 70 29
0 c19 0 35 -8 45 -21 21 -31 36 -14 36 42 0 53 -15 65 -38 29 -8 -13 -23 -20
-42 -20 l-30 0 0 65 0 65 40 0 c30 0 47 -7 66 -25 24 -25 54 -25 54 0 0 27
-20 65 -32 63 -7 -1 -62 -4 -123 -5z"/>
<path d="M330 890 c0 -5 6 -10 13 -10 41 -1 40 -15 -8 -159 -32 -96 -53 -146
-68 -156 -27 -19 -23 -21 40 -27 35 -3 56 -1 63 7 8 9 6 14 -5 19 -15 5 -22
65 -7 67 4 1 33 2 65 3 53 3 60 1 70 -20 8 -19 7 -28 -8 -44 -10 -11 -15 -23
-12 -26 11 -11 380 -4 394 8 13 11 18 74 7 102 -10 26 -32 18 -39 -13 -9 -41
-41 -71 -75 -71 l-30 0 0 150 c0 125 3 152 15 156 35 14 10 24 -55 24 -65 0
-90 -10 -55 -24 23 -8 22 -304 -1 -313 -29 -11 -54 32 -102 182 l-49 150 -76
3 c-49 2 -77 -1 -77 -8z m126 -141 c12 -41 19 -77 17 -81 -2 -5 -27 -8 -55 -8
l-50 0 6 30 c14 74 39 141 49 137 7 -2 21 -37 33 -78z"/>
<path d="M1280 892 c0 -4 9 -13 20 -20 18 -11 20 -23 20 -152 0 -127 -2 -141
-19 -152 -35 -22 -14 -37 42 -31 62 7 66 9 43 26 -14 10 -16 28 -14 122 l3
110 69 -105 c81 -123 113 -160 138 -160 17 0 18 12 18 165 0 154 1 166 20 177
33 21 23 28 -40 28 -57 0 -78 -11 -45 -24 12 -4 15 -26 15 -106 0 -55 -3 -100
-8 -100 -4 0 -34 42 -66 94 -80 130 -87 136 -146 136 -28 0 -50 -3 -50 -8z"/>
<path d="M2570 891 c0 -5 7 -11 15 -15 12 -4 15 -31 15 -155 0 -132 -2 -151
-17 -160 -34 -20 5 -28 119 -25 61 1 115 7 120 12 5 5 8 33 6 63 -2 40 -7 55
-19 57 -11 2 -18 -7 -22 -27 -9 -41 -41 -71 -77 -71 l-30 0 0 150 c0 125 3
152 15 156 35 14 10 24 -55 24 -38 0 -70 -4 -70 -9z"/>
<path d="M835 195 l0 -135 34 0 c26 0 32 3 27 16 -3 9 -6 69 -6 135 l0 119
-27 0 -28 0 0 -135z"/>
<path d="M2173 323 c-10 -3 -9 -8 2 -20 11 -11 15 -39 15 -113 0 -55 -4 -102
-10 -105 -21 -13 -9 -25 26 -25 29 0 35 3 30 16 -3 9 -6 69 -6 135 0 117 0
119 -22 118 -13 0 -29 -3 -35 -6z"/>
<path d="M1329 302 c-45 -6 -72 -45 -77 -111 -4 -53 -2 -61 24 -90 33 -36 90
-50 137 -32 23 9 27 16 27 51 0 29 4 40 15 40 9 0 15 -9 15 -25 0 -34 42 -75
75 -75 40 0 85 50 85 95 0 46 -15 73 -46 85 -41 16 -84 1 -101 -35 -15 -30
-17 -32 -63 -27 -29 3 -50 0 -54 -7 -4 -6 -1 -11 8 -11 9 0 19 -12 22 -26 14
-56 -60 -73 -84 -19 -20 43 -15 128 8 153 27 28 45 28 76 -3 33 -33 48 -32 39
2 -4 16 -7 28 -8 29 -7 5 -77 9 -98 6z m241 -81 c16 -31 13 -126 -5 -141 -28
-23 -45 5 -45 74 0 77 26 111 50 67z"/>
<path d="M607 293 c-10 -9 -9 -73 1 -73 4 0 14 15 22 33 8 17 23 33 33 35 15
3 17 -7 17 -98 0 -80 -3 -102 -15 -106 -32 -13 -13 -24 40 -24 53 0 72 11 40
24 -12 4 -15 26 -15 106 0 91 2 101 17 98 15 -3 33 -27 46 -63 9 -23 18 6 12
39 l-7 36 -92 0 c-51 0 -96 -3 -99 -7z"/>
<path d="M917 235 c-18 -13 -17 -14 5 -17 21 -3 23 -9 28 -78 5 -72 6 -75 30
-75 18 0 24 4 20 15 -2 8 -6 44 -8 80 -5 88 -28 111 -75 75z"/>
<path d="M1075 238 c-33 -19 -44 -41 -45 -86 0 -70 56 -111 111 -82 27 15 24
28 -6 22 -29 -5 -55 13 -55 39 0 14 9 19 43 21 39 3 42 5 45 34 2 17 -3 36
-10 42 -22 17 -62 23 -83 10z m55 -45 c0 -21 -4 -24 -27 -21 -22 2 -27 8 -25
23 2 11 9 26 14 33 15 18 38 -4 38 -35z"/>
<path d="M1705 243 c-51 -13 -61 -61 -20 -90 71 -49 72 -51 51 -68 -27 -21
-35 -19 -46 10 -11 30 -30 33 -30 5 0 -38 67 -53 108 -24 37 25 26 64 -25 92
-48 26 -56 53 -20 70 23 11 16 13 -18 5z"/>
<path d="M1823 242 c-23 -3 -33 -22 -12 -22 7 0 9 -37 7 -110 l-3 -110 33 0
c28 0 31 3 24 18 -12 23 -4 42 18 42 27 0 77 46 83 76 6 31 -9 90 -24 100 -12
7 -91 11 -126 6z m88 -33 c18 -18 20 -30 16 -67 -5 -44 -32 -81 -48 -65 -8 10
-18 123 -12 141 7 18 20 15 44 -9z"/>
<path d="M2054 240 c-32 -13 -54 -50 -54 -90 1 -39 14 -61 47 -78 31 -17 47
-15 74 8 l24 20 -32 -6 c-37 -7 -63 8 -63 37 0 15 7 19 34 19 67 0 85 26 49
68 -22 25 -51 33 -79 22z m46 -40 c0 -25 -4 -30 -25 -30 -20 0 -25 5 -25 23 0
28 7 37 32 37 13 0 18 -8 18 -30z"/>
<path d="M1758 215 c2 -14 8 -25 12 -25 14 0 19 27 7 39 -18 18 -25 13 -19
-14z"/>
</g>
</svg>
